<svg width="40" height="40" viewBox="0 0 40 40" fill="none" xmlns="http://www.w3.org/2000/svg">
<path d="M7.9952 8.18322C7.9952 8.18322 8.4952 5.35122 10.6619 5.35122H13.3448V4.60695C13.3448 4.25333 13.4853 3.91419 13.7353 3.66414C13.9854 3.4141 14.3245 3.27362 14.6781 3.27362H25.3019C25.6555 3.27362 25.9946 3.4141 26.2447 3.66414C26.4947 3.91419 26.6352 4.25333 26.6352 4.60695V5.35122H29.3285C29.6517 5.35017 29.9713 5.41971 30.2648 5.55499C30.5584 5.69027 30.8188 5.88802 31.028 6.13442C31.513 6.72806 31.8451 7.43151 31.9952 8.18322C31.9952 8.18322 32.824 12.375 33.5741 15.9648H31.0728L29.3333 8.00002L10.6187 7.98829L8.8896 15.9648H6.352L7.9952 8.18322ZM37.3285 21.2883C37.3285 21.9952 37.0479 22.6731 36.5482 23.1732C36.0486 23.6732 35.3709 23.9544 34.664 23.955L31.9952 34.5496C31.9952 34.5496 31.4952 37.3275 29.3285 37.3275H10.6619C8.4952 37.3275 7.9952 34.5496 7.9952 34.5496L5.28587 23.9467C4.5852 23.9329 3.91822 23.6434 3.42959 23.1411C2.94095 22.6387 2.67007 21.964 2.67568 21.2632C2.6813 20.5624 2.96296 19.8921 3.45958 19.3976C3.9562 18.9032 4.62774 18.6244 5.32854 18.6219H34.6619C35.3691 18.6219 36.0473 18.9028 36.5474 19.4028C37.0475 19.9029 37.3285 20.5811 37.3285 21.2883ZM13.4205 32.3467L13.4133 29.347L12.3712 25.2496C12.3201 24.873 12.1215 24.5322 11.8191 24.3021C11.5167 24.0719 11.1352 23.9713 10.7587 24.0224C10.3821 24.0735 10.0412 24.2721 9.8111 24.5745C9.58096 24.8769 9.48037 25.2584 9.53147 25.635L10.08 29.3534L10.5797 32.7326C10.6051 32.9191 10.6669 33.0988 10.7617 33.2614C10.8565 33.4241 10.9824 33.5664 11.1322 33.6804C11.282 33.7944 11.4528 33.8778 11.6348 33.9257C11.8168 33.9737 12.0065 33.9854 12.1931 33.96C12.3796 33.9347 12.5593 33.8729 12.7219 33.7781C12.8846 33.6833 13.027 33.5574 13.1409 33.4076C13.2549 33.2578 13.3383 33.087 13.3862 32.9049C13.4342 32.7229 13.4459 32.5332 13.4205 32.3467ZM18.7539 25.4222C18.7539 25.2354 18.7171 25.0504 18.6457 24.8779C18.5742 24.7053 18.4695 24.5485 18.3374 24.4165C18.2053 24.2844 18.0486 24.1797 17.876 24.1082C17.7034 24.0367 17.5185 24 17.3317 24L17.3213 24.0022L17.3029 24C17.1252 24.0001 16.9493 24.0357 16.7856 24.1048C16.6218 24.1739 16.4736 24.2751 16.3496 24.4024C16.211 24.5339 16.1006 24.6922 16.0251 24.8677C15.9496 25.0432 15.9104 25.2322 15.9101 25.4232V32.5699C15.9076 32.7582 15.9424 32.9452 16.0127 33.12C16.083 33.2947 16.1873 33.4538 16.3196 33.5879C16.4519 33.722 16.6095 33.8284 16.7833 33.9011C16.957 33.9738 17.1435 34.0112 17.3319 34.0112C17.5202 34.0112 17.7067 33.9738 17.8805 33.9011C18.0543 33.8284 18.2119 33.722 18.3441 33.5879C18.4764 33.4538 18.5807 33.2947 18.651 33.12C18.7213 32.9452 18.7562 32.7582 18.7536 32.5699L18.7539 25.4222ZM24.0819 25.4222C24.0813 25.1382 23.9953 24.8609 23.8352 24.6263C23.6751 24.3918 23.4482 24.2107 23.184 24.1067C23.0184 24.0358 22.8401 23.9992 22.66 23.9992C22.4799 23.9992 22.3016 24.0358 22.136 24.1067C21.8717 24.2107 21.6448 24.3918 21.4848 24.6265C21.3247 24.8611 21.2389 25.1384 21.2384 25.4224V32.5691C21.2384 32.7558 21.2752 32.9406 21.3466 33.1131C21.4181 33.2856 21.5228 33.4423 21.6548 33.5743C21.7868 33.7063 21.9435 33.811 22.116 33.8825C22.2885 33.9539 22.4733 33.9907 22.66 33.9907C22.8467 33.9907 23.0315 33.9539 23.204 33.8825C23.3765 33.811 23.5332 33.7063 23.6652 33.5743C23.7972 33.4423 23.9019 33.2856 23.9734 33.1131C24.0448 32.9406 24.0816 32.7558 24.0816 32.5691L24.0819 25.4222ZM30.4437 25.6355C30.469 25.449 30.4574 25.2594 30.4094 25.0775C30.3614 24.8955 30.2781 24.7248 30.1641 24.5751C30.0501 24.4253 29.9078 24.2995 29.7452 24.2048C29.5826 24.11 29.403 24.0483 29.2165 24.023C29.0301 23.9977 28.8405 24.0093 28.6585 24.0573C28.4766 24.1053 28.3058 24.1886 28.1561 24.3026C28.0064 24.4165 27.8805 24.5589 27.7858 24.7215C27.6911 24.884 27.6293 25.0637 27.604 25.2502L26.56 29.3168L26.5544 32.3467C26.5291 32.5331 26.5407 32.7228 26.5887 32.9047C26.6367 33.0867 26.72 33.2574 26.8339 33.4072C26.9479 33.5569 27.0902 33.6827 27.2528 33.7775C27.4154 33.8722 27.595 33.934 27.7815 33.9594C27.9679 33.9847 28.1576 33.973 28.3395 33.9251C28.5215 33.8771 28.6922 33.7938 28.8419 33.6798C28.9917 33.5659 29.1175 33.4235 29.2123 33.261C29.307 33.0984 29.3688 32.9187 29.3941 32.7323L30.4437 25.6355Z" fill="white"/>
</svg>
